<?xml version="1.0" encoding="UTF-8"?> <svg xmlns="http://www.w3.org/2000/svg" viewBox="0 0 284.02 30.24"><g><g><g><path d="M20.4,29.42V25.36h-.87a14.52,14.52,0,0,1-1.38,2,7.49,7.49,0,0,1-2.72,2,11.29,11.29,0,0,1-4.74.84,13.56,13.56,0,0,1-5.45-1,8.85,8.85,0,0,1-3.82-3.08A8.37,8.37,0,0,1,0,21.18a8.14,8.14,0,0,1,1.41-4.9,8.69,8.69,0,0,1,3.87-2.93,15,15,0,0,1,5.58-1h8.66V10.51a5.39,5.39,0,0,0-1.5-4A6.23,6.23,0,0,0,13.41,5,6.78,6.78,0,0,0,8.73,6.45,7,7,0,0,0,6.6,10.22L1.05,8.42A12.35,12.35,0,0,1,3.27,4.21a11.13,11.13,0,0,1,4.08-3A14.6,14.6,0,0,1,13.47,0Q19,0,22.19,2.85c2.12,1.9,3.18,4.58,3.18,8.07v18.5M11.56,25.3a8.1,8.1,0,0,0,5.78-2.05,7.41,7.41,0,0,0,2.2-5.66V17H11.22a6.49,6.49,0,0,0-3.81,1A3.4,3.4,0,0,0,6,21a3.7,3.7,0,0,0,1.5,3.13,6.54,6.54,0,0,0,4.09,1.16Z" fill="#040506"></path><path d="M69.94,30.23a15.94,15.94,0,0,1-7.6-1.77,13,13,0,0,1-5.22-5.07,15.44,15.44,0,0,1-1.91-7.84v-.87a15.31,15.31,0,0,1,1.91-7.8,13.12,13.12,0,0,1,5.22-5.07,17,17,0,0,1,15.23,0,13.16,13.16,0,0,1,5.26,5.07,15.21,15.21,0,0,1,1.9,7.8v.87a15.43,15.43,0,0,1-1.9,7.84,12.91,12.91,0,0,1-5.26,5.07A16.06,16.06,0,0,1,69.94,30.23Zm0-5.34a8.49,8.49,0,0,0,6.39-2.52,9.66,9.66,0,0,0,2.46-7v-.52a9.68,9.68,0,0,0-2.43-7,9.29,9.29,0,0,0-12.74,0,9.59,9.59,0,0,0-2.46,7v.52a9.62,9.62,0,0,0,2.46,7A8.43,8.43,0,0,0,69.94,24.89Z" fill="#040506"></path><path d="M87.89,29.42V.82h5.84V4.18h.92a7.56,7.56,0,0,1,2.6-2.67A8.94,8.94,0,0,1,102.1.35a9,9,0,0,1,5.12,1.31A8.32,8.32,0,0,1,110.13,5h.93a8.71,8.71,0,0,1,2.86-3.31A9.13,9.13,0,0,1,119.26.35a10.34,10.34,0,0,1,4.91,1.14,8.36,8.36,0,0,1,3.41,3.36,11,11,0,0,1,1.27,5.54v19H122.9V10.85a4.94,4.94,0,0,0-4.37-5.45,4.7,4.7,0,0,0-1.06,0A5.8,5.8,0,0,0,113,7.2a7.28,7.28,0,0,0-1.67,5.16V29.42H105.4V10.85A4.94,4.94,0,0,0,101,5.4a4.7,4.7,0,0,0-1.06,0,5.77,5.77,0,0,0-4.45,1.8,7.33,7.33,0,0,0-1.68,5.16V29.42Z" fill="#040506"></path><path d="M146.23,30.23a15.14,15.14,0,0,1-7.57-1.83,12.88,12.88,0,0,1-5.06-5.16,15.94,15.94,0,0,1-1.82-7.75v-.7A16.39,16.39,0,0,1,133.57,7a12.86,12.86,0,0,1,5-5.16A14.8,14.8,0,0,1,146,0a13.93,13.93,0,0,1,7.19,1.83A12.74,12.74,0,0,1,158,6.91a15.91,15.91,0,0,1,1.74,7.6v2.26h-21.9a8.18,8.18,0,0,0,2.51,6,8.41,8.41,0,0,0,6,2.23,7.39,7.39,0,0,0,5-1.5A10.65,10.65,0,0,0,154,20l4.91,2.55A17,17,0,0,1,156.59,26a12.27,12.27,0,0,1-4,3A14.45,14.45,0,0,1,146.23,30.23Zm-8.32-18h15.77a7.13,7.13,0,0,0-2.31-5.08,8,8,0,0,0-5.43-1.83,8.07,8.07,0,0,0-5.46,1.83,7.93,7.93,0,0,0-2.57,5.08Z" fill="#040506"></path><path d="M44.77,15.15l11.5,14.27H49.16l-7.92-9.88-7.92,9.88h-7.1l11.5-14.27,3.53-4.37,8-10h7Z" fill="#040506"></path></g><path d="M37.74,6.43l-3.5,4.35,0,0-8-10h7Z" fill="#040506"></path></g><g><g><path d="M170.58,29.38l4.22-11.45h1.9l4.19,11.45h-1.84l-1-2.8h-4.68l-1,2.8Zm3.3-4.17h3.7L175.73,20Z" fill="#040506"></path><path d="M186.64,29.58a5.42,5.42,0,0,1-2.83-.74,5,5,0,0,1-1.88-2.06,6.93,6.93,0,0,1-.67-3.1,6.75,6.75,0,0,1,.69-3.09,5.15,5.15,0,0,1,2-2.1,5.71,5.71,0,0,1,3-.76,5.45,5.45,0,0,1,3.27.95,4.36,4.36,0,0,1,1.7,2.62h-2a2.47,2.47,0,0,0-1-1.44,3.45,3.45,0,0,0-2-.53,3.61,3.61,0,0,0-2.83,1.17,5.53,5.53,0,0,0,0,6.4,3.47,3.47,0,0,0,2.7,1.14,3.27,3.27,0,0,0,2.57-1,4.42,4.42,0,0,0,1-2.57h-3.11V23.16h4.86v6.22h-1.58l-.15-1.68a4.17,4.17,0,0,1-1.44,1.39A4.64,4.64,0,0,1,186.64,29.58Z" fill="#040506"></path><path d="M194,29.38V17.93h7.29v1.4h-5.55V22.9h5.06v1.37h-5.06V28h5.55v1.41Z" fill="#040506"></path><path d="M203.2,29.38V17.93h1.74l5.74,8.62V17.93h1.74V29.38h-1.74l-5.74-8.62v8.62Z" fill="#040506"></path><path d="M219.68,29.58a5.57,5.57,0,0,1-2.93-.75,4.86,4.86,0,0,1-1.91-2.08,7.49,7.49,0,0,1,0-6.18,4.94,4.94,0,0,1,1.91-2.09,5.48,5.48,0,0,1,2.93-.75,5.21,5.21,0,0,1,3.29,1,4.34,4.34,0,0,1,1.62,2.75h-1.93a2.75,2.75,0,0,0-1-1.59,3.23,3.23,0,0,0-2-.59A3.43,3.43,0,0,0,217,20.45a4.8,4.8,0,0,0-1,3.22,4.72,4.72,0,0,0,1,3.19A3.39,3.39,0,0,0,219.67,28a3.33,3.33,0,0,0,2-.55,2.61,2.61,0,0,0,1-1.53h1.93A4.24,4.24,0,0,1,223,28.61,5.29,5.29,0,0,1,219.68,29.58Z" fill="#040506"></path><path d="M228.7,29.38V25.16l-3.8-7.23h2l2.7,5.53,2.68-5.53h1.95l-3.76,7.23v4.22Z" fill="#040506"></path></g><g><path d="M171.31,12.25V.8h4.32a3.82,3.82,0,0,1,2.7.83,2.71,2.71,0,0,1,.92,2.09,2.53,2.53,0,0,1-.59,1.75,3,3,0,0,1-1.42.87,2.83,2.83,0,0,1,2,1.51,2.92,2.92,0,0,1,.29,1.27,3,3,0,0,1-.43,1.6,3.08,3.08,0,0,1-1.27,1.13,4.5,4.5,0,0,1-2.05.4Zm1.74-6.55h2.37a2.18,2.18,0,0,0,1.52-.46A1.61,1.61,0,0,0,177.46,4,1.6,1.6,0,0,0,177,2.68a2.25,2.25,0,0,0-1.56-.48h-2.34Zm0,5.13h2.48a2.48,2.48,0,0,0,1.63-.49A1.7,1.7,0,0,0,177.74,9a1.75,1.75,0,0,0-.6-1.4,2.43,2.43,0,0,0-1.64-.51h-2.45Z" fill="#040506"></path><path d="M181.25,12.25V.8h3.94a4.75,4.75,0,0,1,2.23.45,3.11,3.11,0,0,1,1.3,1.24,3.47,3.47,0,0,1,.43,1.73,3.51,3.51,0,0,1-.57,1.93,3.09,3.09,0,0,1-1.76,1.24l2.44,4.86h-2L185,7.64h-2v4.61ZM183,6.33h2.11a2.34,2.34,0,0,0,1.73-.58,2,2,0,0,0,.54-1.49,1.93,1.93,0,0,0-.54-1.46,2.35,2.35,0,0,0-1.75-.55H183Z" fill="#040506"></path><path d="M190.29,12.25,194.52.8h1.9l4.18,11.45h-1.83l-1-2.8h-4.68l-1,2.8Zm3.31-4.17h3.7l-1.85-5.22Z" fill="#040506"></path><path d="M202,12.25V.8h1.74l5.74,8.62V.8h1.74V12.25h-1.74l-5.74-8.62v8.62Z" fill="#040506"></path><path d="M213.42,12.25V.8h3.71a6.77,6.77,0,0,1,3.31.7,4.47,4.47,0,0,1,1.94,2,7.67,7.67,0,0,1,0,6.09,4.42,4.42,0,0,1-1.94,2,7,7,0,0,1-3.31.7Zm1.73-1.47h1.92a5.12,5.12,0,0,0,2.46-.51,2.92,2.92,0,0,0,1.31-1.46,5.85,5.85,0,0,0,.4-2.27,6.18,6.18,0,0,0-.4-2.29,3,3,0,0,0-1.31-1.48,5,5,0,0,0-2.46-.52h-1.92Z" fill="#040506"></path><path d="M232.25,12.45a4.92,4.92,0,0,1-2.14-.44,3.32,3.32,0,0,1-1.41-1.22A3.27,3.27,0,0,1,228.19,9a3.45,3.45,0,0,1,.65-2.05,4.51,4.51,0,0,1,1.9-1.44A4.43,4.43,0,0,1,230,4.36a3,3,0,0,1-.23-1.14,2.45,2.45,0,0,1,.82-1.88A3.25,3.25,0,0,1,232.86.6a3.44,3.44,0,0,1,1.63.36,2.56,2.56,0,0,1,1,1,2.57,2.57,0,0,1,.34,1.38h-1.69a1.16,1.16,0,0,0-.4-1,1.43,1.43,0,0,0-.95-.35,1.47,1.47,0,0,0-1,.36,1.19,1.19,0,0,0-.37.89,1.71,1.71,0,0,0,.27.93,5.46,5.46,0,0,0,.82,1l3.4,3.42c.28-.41.57-.9.89-1.47l.42-.8h1.8L238.4,7.5a15.89,15.89,0,0,1-1.33,2.2l2.56,2.55H237.5l-1.39-1.39a5.16,5.16,0,0,1-3.86,1.59Zm-2.37-3.59a1.92,1.92,0,0,0,.66,1.52,2.46,2.46,0,0,0,1.74.61,3.5,3.5,0,0,0,1.46-.29A3.79,3.79,0,0,0,235,9.76l-3.25-3.25a3.36,3.36,0,0,0-1.42,1,2.15,2.15,0,0,0-.46,1.36Z" fill="#040506"></path><path d="M247.5,12.25V2.2h-3.39V.8h8.49V2.2h-3.37V12.25Z" fill="#040506"></path><path d="M254.06,12.25V.8h7.28V2.2H255.8V5.77h5.05V7.14H255.8v3.7h5.54v1.41Z" fill="#040506"></path><path d="M268.35,12.45a5.61,5.61,0,0,1-2.94-.75,5,5,0,0,1-1.91-2.08,7.49,7.49,0,0,1,0-6.18,5.07,5.07,0,0,1,1.91-2.09A5.51,5.51,0,0,1,268.35.6a5.25,5.25,0,0,1,3.29,1,4.43,4.43,0,0,1,1.62,2.75h-1.93a2.72,2.72,0,0,0-1-1.59,3.19,3.19,0,0,0-2-.59,3.4,3.4,0,0,0-2.71,1.17,4.74,4.74,0,0,0-1,3.22,4.67,4.67,0,0,0,1,3.19,3.38,3.38,0,0,0,2.71,1.16,3.33,3.33,0,0,0,2-.55,2.58,2.58,0,0,0,1-1.53h1.93a4.33,4.33,0,0,1-1.62,2.67A5.31,5.31,0,0,1,268.35,12.45Z" fill="#040506"></path><path d="M275,12.25V.8h1.73V5.7h5.55V.8H284V12.25h-1.73V7.13h-5.55v5.12Z" fill="#040506"></path></g></g></g></svg> 